<svg width="59" height="59" viewBox="0 0 59 59" fill="none" xmlns="http://www.w3.org/2000/svg">
<path d="M29.8362 21.1334C27.5288 21.1334 25.3159 22.05 23.6843 23.6815C22.0528 25.3131 21.1362 27.526 21.1362 29.8334C21.1362 32.1408 22.0528 34.3536 23.6843 35.9852C25.3159 37.6168 27.5288 38.5334 29.8362 38.5334C32.1435 38.5334 34.3564 37.6168 35.988 35.9852C37.6195 34.3536 38.5362 32.1408 38.5362 29.8334C38.5362 27.526 37.6195 25.3131 35.988 23.6815C34.3564 22.05 32.1435 21.1334 29.8362 21.1334ZM29.8362 15.3334C33.6818 15.3334 37.3699 16.861 40.0892 19.5803C42.8085 22.2996 44.3362 25.9877 44.3362 29.8334C44.3362 33.679 42.8085 37.3671 40.0892 40.0864C37.3699 42.8057 33.6818 44.3334 29.8362 44.3334C25.9905 44.3334 22.3024 42.8057 19.5831 40.0864C16.8638 37.3671 15.3362 33.679 15.3362 29.8334C15.3362 25.9877 16.8638 22.2996 19.5831 19.5803C22.3024 16.861 25.9905 15.3334 29.8362 15.3334ZM48.6862 14.6084C48.6862 15.5698 48.3042 16.4918 47.6244 17.1716C46.9446 17.8515 46.0226 18.2334 45.0612 18.2334C44.0997 18.2334 43.1777 17.8515 42.4979 17.1716C41.8181 16.4918 41.4362 15.5698 41.4362 14.6084C41.4362 13.647 41.8181 12.7249 42.4979 12.0451C43.1777 11.3653 44.0997 10.9834 45.0612 10.9834C46.0226 10.9834 46.9446 11.3653 47.6244 12.0451C48.3042 12.7249 48.6862 13.647 48.6862 14.6084ZM29.8362 6.63337C22.6616 6.63337 21.49 6.65367 18.1521 6.80157C15.8785 6.90887 14.3531 7.21337 12.9379 7.76437C11.7542 8.20045 10.6837 8.89722 9.80585 9.80307C8.89894 10.6807 8.20117 11.7511 7.76425 12.9351C7.21325 14.3561 6.90875 15.8786 6.80435 18.1493C6.65355 21.3509 6.63325 22.4703 6.63325 29.8334C6.63325 37.0109 6.65355 38.1796 6.80145 41.5175C6.90875 43.7882 7.21325 45.3165 7.76135 46.7288C8.25435 47.9903 8.83435 48.898 9.79715 49.8608C10.7745 50.8352 11.6822 51.4181 12.9292 51.8995C14.3618 52.4534 15.8872 52.7608 18.1492 52.8652C21.3508 53.016 22.4702 53.0334 29.8333 53.0334C37.0108 53.0334 38.1795 53.0131 41.5174 52.8652C43.7852 52.7579 45.3106 52.4534 46.7287 51.9053C47.9123 51.4692 48.9828 50.7724 49.8607 49.8666C50.838 48.8922 51.4209 47.9845 51.9023 46.7346C52.4533 45.3078 52.7607 43.7824 52.8651 41.5146C53.0159 38.3159 53.0333 37.1936 53.0333 29.8334C53.0333 22.6588 53.013 21.4872 52.8651 18.1493C52.7578 15.8815 52.4504 14.3503 51.9023 12.9351C51.4662 11.7514 50.7694 10.681 49.8636 9.80307C48.986 8.89617 47.9155 8.19839 46.7316 7.76147C45.3106 7.21047 43.7852 6.90597 41.5174 6.80157C38.3186 6.65077 37.1993 6.63337 29.8333 6.63337M29.8333 0.833374C37.7126 0.833374 38.6957 0.862374 41.79 1.00737C44.8755 1.15237 46.9809 1.63667 48.8283 2.35587C50.7423 3.09247 52.3547 4.09007 53.9671 5.69957C55.4423 7.1488 56.5834 8.90254 57.3108 10.8384C58.0271 12.6857 58.5143 14.7911 58.6593 17.8796C58.7956 20.971 58.8333 21.9541 58.8333 29.8334C58.8333 37.7127 58.8043 38.6958 58.6593 41.7872C58.5143 44.8786 58.0271 46.9782 57.3108 48.8284C56.5834 50.7642 55.4423 52.518 53.9671 53.9672C52.5178 55.4424 50.7641 56.5835 48.8283 57.3109C46.9809 58.0272 44.8755 58.5144 41.79 58.6594C38.6957 58.7957 37.7126 58.8334 29.8333 58.8334C21.954 58.8334 20.9709 58.8044 17.8766 58.6594C14.791 58.5144 12.6885 58.0272 10.8383 57.3109C8.90242 56.5835 7.14868 55.4424 5.69945 53.9672C4.22424 52.518 3.08312 50.7642 2.35575 48.8284C1.63655 46.9811 1.15225 44.8757 1.00725 41.7872C0.868052 38.6958 0.833252 37.7127 0.833252 29.8334C0.833252 21.9541 0.862252 20.971 1.00725 17.8796C1.15225 14.7882 1.63655 12.6886 2.35575 10.8384C3.08312 8.90254 4.22424 7.1488 5.69945 5.69957C7.14868 4.22436 8.90242 3.08324 10.8383 2.35587C12.6856 1.63667 14.7881 1.15237 17.8766 1.00737C20.9738 0.871074 21.9569 0.833374 29.8362 0.833374" fill="black"/>
</svg>
