<svg width="58" height="58" viewBox="0 0 58 58" fill="none" xmlns="http://www.w3.org/2000/svg">
<path d="M29.0029 20.3C26.6955 20.3 24.4826 21.2166 22.8511 22.8482C21.2195 24.4797 20.3029 26.6926 20.3029 29C20.3029 31.3074 21.2195 33.5203 22.8511 35.1518C24.4826 36.7834 26.6955 37.7 29.0029 37.7C31.3103 37.7 33.5232 36.7834 35.1547 35.1518C36.7863 33.5203 37.7029 31.3074 37.7029 29C37.7029 26.6926 36.7863 24.4797 35.1547 22.8482C33.5232 21.2166 31.3103 20.3 29.0029 20.3ZM29.0029 14.5C32.8485 14.5 36.5367 16.0277 39.256 18.747C41.9752 21.4662 43.5029 25.1544 43.5029 29C43.5029 32.8456 41.9752 36.5338 39.256 39.253C36.5367 41.9723 32.8485 43.5 29.0029 43.5C25.1573 43.5 21.4691 41.9723 18.7499 39.253C16.0306 36.5338 14.5029 32.8456 14.5029 29C14.5029 25.1544 16.0306 21.4662 18.7499 18.747C21.4691 16.0277 25.1573 14.5 29.0029 14.5ZM47.8529 13.775C47.8529 14.7364 47.471 15.6584 46.7912 16.3383C46.1113 17.0181 45.1893 17.4 44.2279 17.4C43.2665 17.4 42.3445 17.0181 41.6646 16.3383C40.9848 15.6584 40.6029 14.7364 40.6029 13.775C40.6029 12.8136 40.9848 11.8916 41.6646 11.2117C42.3445 10.5319 43.2665 10.15 44.2279 10.15C45.1893 10.15 46.1113 10.5319 46.7912 11.2117C47.471 11.8916 47.8529 12.8136 47.8529 13.775ZM29.0029 5.8C21.8283 5.8 20.6567 5.8203 17.3188 5.9682C15.0452 6.0755 13.5198 6.38 12.1046 6.931C10.9209 7.36707 9.85049 8.06384 8.9726 8.9697C8.06569 9.8473 7.36792 10.9177 6.931 12.1017C6.38 13.5227 6.0755 15.0452 5.9711 17.3159C5.8203 20.5175 5.8 21.6369 5.8 29C5.8 36.1775 5.8203 37.3462 5.9682 40.6841C6.0755 42.9548 6.38 44.4831 6.9281 45.8954C7.4211 47.1569 8.0011 48.0646 8.9639 49.0274C9.9412 50.0018 10.8489 50.5847 12.0959 51.0661C13.5285 51.62 15.0539 51.9274 17.3159 52.0318C20.5175 52.1826 21.6369 52.2 29 52.2C36.1775 52.2 37.3462 52.1797 40.6841 52.0318C42.9519 51.9245 44.4773 51.62 45.8954 51.0719C47.0791 50.6358 48.1495 49.9391 49.0274 49.0332C50.0047 48.0588 50.5876 47.1511 51.069 45.9012C51.62 44.4744 51.9274 42.949 52.0318 40.6812C52.1826 37.4825 52.2 36.3602 52.2 29C52.2 21.8254 52.1797 20.6538 52.0318 17.3159C51.9245 15.0481 51.6171 13.5169 51.069 12.1017C50.6329 10.918 49.9362 9.84759 49.0303 8.9697C48.1527 8.06279 47.0823 7.36502 45.8983 6.9281C44.4773 6.3771 42.9519 6.0726 40.6841 5.9682C37.4854 5.8174 36.366 5.8 29 5.8M29 0C36.8793 0 37.8624 0.0289998 40.9567 0.174C44.0423 0.319 46.1477 0.8033 47.995 1.5225C49.909 2.2591 51.5214 3.2567 53.1338 4.8662C54.609 6.31542 55.7501 8.06917 56.4775 10.005C57.1938 11.8523 57.681 13.9577 57.826 17.0462C57.9623 20.1376 58 21.1207 58 29C58 36.8793 57.971 37.8624 57.826 40.9538C57.681 44.0452 57.1938 46.1448 56.4775 47.995C55.7501 49.9308 54.609 51.6846 53.1338 53.1338C51.6846 54.609 49.9308 55.7501 47.995 56.4775C46.1477 57.1938 44.0423 57.681 40.9567 57.826C37.8624 57.9623 36.8793 58 29 58C21.1207 58 20.1376 57.971 17.0433 57.826C13.9577 57.681 11.8552 57.1938 10.005 56.4775C8.06917 55.7501 6.31542 54.609 4.8662 53.1338C3.39099 51.6846 2.24987 49.9308 1.5225 47.995C0.8033 46.1477 0.319 44.0423 0.174 40.9538C0.0347998 37.8624 0 36.8793 0 29C0 21.1207 0.0289998 20.1376 0.174 17.0462C0.319 13.9548 0.8033 11.8552 1.5225 10.005C2.24987 8.06917 3.39099 6.31542 4.8662 4.8662C6.31542 3.39099 8.06917 2.24987 10.005 1.5225C11.8523 0.8033 13.9548 0.319 17.0433 0.174C20.1405 0.0376998 21.1236 0 29.0029 0" fill="#061F39"/>
</svg>
