<svg width="56" height="56" viewBox="0 0 56 56" fill="none" xmlns="http://www.w3.org/2000/svg">
<path d="M28 0C31.677 0 35.3178 0.724728 38.7148 2.13184C42.112 3.53897 45.1988 5.60113 47.7988 8.20117C50.3989 10.8012 52.461 13.888 53.8682 17.2852C55.2753 20.6822 56 24.323 56 28C56 35.4261 53.0498 42.5478 47.7988 47.7988C42.5478 53.0498 35.4261 56 28 56C24.323 56 20.6822 55.2753 17.2852 53.8682C13.888 52.461 10.8012 50.3989 8.20117 47.7988C2.95015 42.5478 0 35.4261 0 28C0 20.5739 2.95015 13.4522 8.20117 8.20117C10.8012 5.60113 13.888 3.53897 17.2852 2.13184C20.6822 0.724728 24.323 0 28 0ZM18.2041 20.7402C18.0608 20.7403 17.9258 20.7968 17.8223 20.8848C17.7187 20.9729 17.6546 21.1088 17.6387 21.2529C17.1048 27.0185 16.8259 32.4077 17.6387 38.1572C17.6387 38.3093 17.6942 38.4535 17.8057 38.5576C17.9172 38.6617 18.0528 38.7255 18.2041 38.7256C18.3555 38.7256 18.4989 38.6697 18.6025 38.5576C18.7061 38.4455 18.7705 38.3094 18.7705 38.1572C19.6072 32.3276 19.3521 27.0905 18.7783 21.2529H18.7705C18.7546 21.1089 18.6904 20.9808 18.5869 20.8848C18.4833 20.7887 18.3475 20.7402 18.2041 20.7402ZM14.6826 22.3184C14.5232 22.3184 14.3791 22.3822 14.2676 22.4863C14.1562 22.5904 14.1006 22.7424 14.1006 22.9023C13.4551 27.9713 13.4551 33.1127 14.1006 38.1816C14.1166 38.3257 14.1805 38.4538 14.292 38.5498C14.4034 38.6457 14.5386 38.702 14.6738 38.7021C14.8093 38.7021 14.953 38.6459 15.0566 38.5498C15.1602 38.4538 15.2321 38.3257 15.248 38.1816C15.9493 33.1127 15.9568 27.9713 15.2715 22.9023H15.2637C15.2636 22.7503 15.2001 22.5984 15.0967 22.4863C14.9932 22.3743 14.8418 22.3185 14.6826 22.3184ZM11.1436 26.1377C10.9923 26.1378 10.8408 26.2017 10.7373 26.3057C10.6338 26.4097 10.5704 26.5619 10.5703 26.7139C9.73359 30.6537 10.1324 34.234 10.6025 38.2139C10.6265 38.3418 10.6897 38.4618 10.7852 38.5498C10.8807 38.6378 11.0083 38.6854 11.1436 38.6855C11.279 38.6855 11.3993 38.6379 11.5029 38.5498C11.6063 38.4618 11.6695 38.3497 11.6855 38.2139C12.2115 34.1779 12.6103 30.6777 11.7178 26.7139C11.7177 26.5619 11.6542 26.4097 11.5508 26.3057C11.4472 26.2016 11.295 26.1377 11.1436 26.1377ZM33.9023 15.7832C30.5632 15.7833 28.9606 16.8812 28.9385 16.8965C28.6436 17.0246 28.396 17.2414 28.2207 17.5137C28.0457 17.7857 27.9578 18.1058 27.9736 18.4258V37.2285C27.9736 37.6129 28.1256 37.9816 28.3965 38.2539C28.6673 38.5259 29.0338 38.6854 29.416 38.6855H46.7881C48.6289 38.7096 50.4062 38.0131 51.7529 36.7559C53.0996 35.4986 53.912 33.7609 54.0156 31.9111C54.0475 30.9744 53.8884 30.0457 53.5459 29.165C53.2033 28.2843 52.6934 27.491 52.04 26.8184C51.3867 26.1458 50.6214 25.6016 49.7529 25.2412C48.8843 24.8809 47.9597 24.6961 47.0273 24.7041C46.4058 24.7041 45.7842 24.7928 45.1865 24.9609C44.8518 23.3914 44.1981 21.9098 43.2578 20.6045C42.3176 19.2993 41.1226 18.2103 39.7441 17.3936C37.9751 16.3365 35.9583 15.7832 33.9023 15.7832ZM21.7109 21.2773C21.5597 21.2773 21.424 21.3328 21.3125 21.4287C21.2009 21.5248 21.137 21.6615 21.1211 21.8057C20.4916 27.2429 20.4916 32.7366 21.1211 38.1738C21.1451 38.3178 21.2168 38.4462 21.3203 38.5342C21.4238 38.622 21.567 38.6776 21.7021 38.6777C21.8375 38.6777 21.9814 38.6301 22.085 38.5342C22.1884 38.4382 22.2602 38.3098 22.2842 38.1738C22.9854 32.7446 22.9853 27.2429 22.292 21.8057H22.2998C22.2839 21.6615 22.213 21.5248 22.1094 21.4287C22.0059 21.3327 21.8622 21.2774 21.7109 21.2773ZM25.4717 19.043C25.3283 18.9789 25.1532 18.9789 25.0098 19.043C24.9381 19.075 24.8741 19.1227 24.8184 19.1787C24.7627 19.2347 24.7231 19.3068 24.6992 19.3867C24.6753 19.4667 24.6669 19.5391 24.6748 19.6191C24.1967 25.9372 23.8302 31.863 24.6748 38.165C24.6907 38.3011 24.7549 38.4293 24.8584 38.5254C25.0656 38.7176 25.4002 38.7176 25.6074 38.5254C25.7109 38.4293 25.7751 38.3011 25.791 38.165C26.6914 31.807 26.3169 25.9932 25.791 19.6191H25.8066C25.8146 19.5391 25.8061 19.4587 25.7822 19.3867C25.7583 19.3148 25.7188 19.2426 25.6631 19.1787C25.6073 19.1147 25.5434 19.075 25.4717 19.043ZM7.61426 25.5771C7.47087 25.5771 7.32737 25.6335 7.21582 25.7295C7.10435 25.8255 7.04042 25.9613 7.02441 26.1133C6.28334 30.1331 6.52992 33.6728 7.04785 37.6846C7.10363 38.2932 8.13156 38.2852 8.19531 37.6846C8.76903 33.6087 9.03252 30.1731 8.21973 26.1133H8.20312C8.18711 25.9694 8.11603 25.8335 8.0127 25.7295C7.90919 25.6255 7.75758 25.5772 7.61426 25.5771ZM4.05957 27.5469C3.91621 27.5469 3.77263 27.6032 3.66113 27.6992C3.54966 27.7953 3.47769 27.9319 3.46973 28.084C2.79256 30.7823 2.9997 33.0164 3.51758 35.7227C3.53351 35.8587 3.59764 35.9871 3.70117 36.0752C3.80477 36.1633 3.93273 36.2197 4.07617 36.2197C4.21944 36.2196 4.3467 36.1712 4.4502 36.0752C4.55377 35.9791 4.61785 35.8588 4.63379 35.7227C5.23137 32.9602 5.52552 30.7744 4.66504 28.084H4.64941C4.63348 27.9398 4.5616 27.8033 4.45801 27.6992C4.35442 27.5952 4.20296 27.5469 4.05957 27.5469Z" fill="#061F39"/>
</svg>
