<svg width="56" height="56" viewBox="0 0 56 56" fill="none" xmlns="http://www.w3.org/2000/svg">
<path d="M44.52 24.92C35.56 19.6 20.58 19.04 12.04 21.7C10.64 22.12 9.24 21.28 8.82 20.02C8.4 18.62 9.24 17.22 10.5 16.8C20.44 13.86 36.82 14.42 47.18 20.58C48.44 21.28 48.86 22.96 48.16 24.22C47.46 25.2 45.78 25.62 44.52 24.92ZM44.24 32.76C43.54 33.74 42.28 34.16 41.3 33.46C33.74 28.84 22.26 27.44 13.44 30.24C12.32 30.52 11.06 29.96 10.78 28.84C10.5 27.72 11.06 26.46 12.18 26.18C22.4 23.1 35 24.64 43.68 29.96C44.52 30.38 44.94 31.78 44.24 32.76ZM40.88 40.46C40.32 41.3 39.34 41.58 38.5 41.02C31.92 36.96 23.66 36.12 13.86 38.36C12.88 38.64 12.04 37.94 11.76 37.1C11.48 36.12 12.18 35.28 13.02 35C23.66 32.62 32.9 33.6 40.18 38.08C41.16 38.5 41.3 39.62 40.88 40.46ZM28 0C24.323 0 20.682 0.724242 17.2849 2.13137C13.8877 3.5385 10.8011 5.60097 8.20101 8.20101C2.94999 13.452 0 20.5739 0 28C0 35.4261 2.94999 42.548 8.20101 47.799C10.8011 50.399 13.8877 52.4615 17.2849 53.8686C20.682 55.2758 24.323 56 28 56C35.4261 56 42.548 53.05 47.799 47.799C53.05 42.548 56 35.4261 56 28C56 24.323 55.2758 20.682 53.8686 17.2849C52.4615 13.8877 50.399 10.8011 47.799 8.20101C45.1989 5.60097 42.1123 3.5385 38.7151 2.13137C35.318 0.724242 31.677 0 28 0Z" fill="#061F39"/>
</svg>
