<svg width="68" height="66" viewBox="0 0 68 66" fill="none" xmlns="http://www.w3.org/2000/svg">
<path d="M39.0856 52.3697C38.119 53.2941 37.0934 54.2113 36.0088 55.1211L36.3076 55.0715L37.2428 54.9065C38.0906 54.7359 38.9291 54.5228 39.7552 54.2681L39.9434 54.2131L40.5355 55.4732L41.1995 56.8929L40.6074 57.08C39.6831 57.3655 38.7448 57.6043 37.7962 57.7954C36.8444 57.9898 35.876 58.1347 34.891 58.2301C33.9059 58.3237 32.9043 58.3732 31.8916 58.3732C30.8789 58.3732 29.8883 58.3237 28.9033 58.2301C27.9183 58.1366 26.9554 57.988 25.998 57.7954C25.0638 57.6144 24.1401 57.3829 23.2311 57.1021C22.3206 56.8223 21.4249 56.4973 20.5472 56.1281H20.4753L20.4255 56.0951C19.5622 55.7282 18.7229 55.3228 17.9076 54.8789C17.0609 54.4277 16.2474 53.9325 15.4505 53.4097C14.6827 52.9004 13.9437 52.3493 13.237 51.7589C12.501 51.1591 11.8037 50.5263 11.1341 49.8659C10.4697 49.2164 9.84161 48.5312 9.2526 47.8134C8.66132 47.0935 8.10722 46.3442 7.59245 45.5683C7.04987 44.7851 6.54749 43.9752 6.08724 43.1416C5.92676 42.8499 5.77181 42.5528 5.6224 42.2556H35.0625C35.1106 42.8165 35.222 43.3703 35.3945 43.9065C35.4443 44.055 35.4941 44.2091 35.555 44.3577L35.8981 45.1941H33.3857V53.5088C34.9795 52.1881 36.4515 50.8619 37.8128 49.5303C38.2389 50.4767 38.6761 51.4232 39.1133 52.3697H39.0856ZM3.32031 35.8449L0 22.5613H4.80339L6.33073 30.6613H6.43587L8.1403 22.5613H12.8053L14.5817 30.5898H14.6813L16.1478 22.5613H20.9456L17.6253 35.8504H12.4235L10.542 28.6968H10.4036L8.52767 35.8504L3.32031 35.8449ZM24.7529 35.8449L21.4382 22.5613H26.236L27.7689 30.6613H27.874L29.5785 22.5613H34.2435L36.0199 30.5898H36.1195L37.5804 22.5613H42.3838L39.0635 35.8504H33.8561L31.9801 28.6968H31.8418L29.9603 35.8504L24.7529 35.8449ZM46.1911 35.8449L42.8763 22.5613H47.6742L49.207 30.6613H49.3066L51.0166 22.5613H55.6816L57.458 30.5898H57.5521L59.0186 22.5613H63.8219L60.5016 35.8504H55.2943L53.4183 28.6968H53.2799L51.3984 35.8504L46.1911 35.8449ZM64.5192 63.6283C64.3742 63.7683 64.2057 63.8819 64.0212 63.964C63.837 64.0448 63.6407 64.095 63.4401 64.1126C63.2103 64.1312 62.9791 64.105 62.7594 64.0355C62.5403 63.9682 62.3371 63.8578 62.1618 63.7109L57.2311 59.5508L55.571 63.6833C55.4334 64.0156 55.2648 64.3343 55.0674 64.6353C54.8843 64.9078 54.6688 65.1572 54.4255 65.3782C54.2102 65.599 53.947 65.768 53.656 65.8724C53.365 65.9767 53.0539 66.0135 52.7464 65.9801C52.439 65.9466 52.1432 65.8438 51.8818 65.6794C51.6204 65.515 51.4002 65.2934 51.238 65.0315C51.0838 64.8161 50.9521 64.5857 50.8451 64.3437C47.8734 56.959 43.8945 49.5963 40.9505 42.1951C40.8611 41.9765 40.8326 41.738 40.8678 41.5046C40.903 41.2712 41.0007 41.0516 41.1507 40.8687C41.3007 40.6858 41.4974 40.5464 41.7202 40.4651C41.943 40.3838 42.1837 40.3637 42.417 40.4067C49.5501 41.7219 58.7861 44.7154 66.041 46.6303C68.2933 47.2191 68.6585 49.1946 66.9928 50.7244C66.7294 50.9694 66.4399 51.1853 66.1296 51.3682C64.8512 52.089 63.5563 52.92 62.2946 53.6848L67.2031 57.8669C67.3785 58.0209 67.5214 58.208 67.6237 58.4172V58.4502C67.7195 58.6447 67.7759 58.8559 67.7897 59.072C67.802 59.2909 67.7777 59.5104 67.7178 59.7214C67.6512 59.9353 67.5483 60.1363 67.4134 60.3157C66.522 61.4681 65.5668 62.5703 64.5524 63.6173L64.5192 63.6283ZM63.252 62.005L65.626 59.2536C64.5801 58.3567 60.1198 54.901 59.6328 54.0645C59.5008 53.8347 59.4645 53.5626 59.5317 53.3065C59.5989 53.0504 59.7644 52.8307 59.9925 52.6943C61.542 51.8359 63.5452 50.6363 65.0173 49.6568C65.2021 49.5486 65.3762 49.4233 65.5374 49.2826C65.6598 49.1739 65.7677 49.05 65.8584 48.914L65.9248 48.7874L65.792 48.7104C65.6884 48.6644 65.581 48.6276 65.471 48.6003L43.3965 42.7619L52.6712 63.5403C52.7174 63.6413 52.771 63.7388 52.8317 63.8319L52.9258 63.953L53.042 63.8704C53.1649 63.7616 53.2711 63.6356 53.3574 63.4963C53.4713 63.3227 53.5677 63.1384 53.6452 62.946C54.3425 61.2511 55.1283 58.94 55.9417 57.3772L56.0413 57.2396C56.1274 57.1388 56.2327 57.0558 56.351 56.9954C56.4694 56.9351 56.5985 56.8985 56.7311 56.8877C56.8637 56.877 56.9971 56.8923 57.1238 56.9329C57.2504 56.9734 57.3677 57.0384 57.4691 57.1241L63.2741 62.016L63.252 62.005ZM27.8298 55.1376C26.054 53.6441 24.3635 52.0532 22.7663 50.3722C21.2129 48.748 19.7848 47.0097 18.4941 45.1721H10.9238C11.2337 45.5848 11.5602 45.981 11.8978 46.3662C12.3184 46.8504 12.7611 47.3237 13.2204 47.7804C13.8217 48.382 14.4452 48.9433 15.0908 49.4642C15.7383 49.995 16.4124 50.4927 17.1107 50.9555C17.8139 51.4331 18.5417 51.8739 19.291 52.2761C20.0289 52.6833 20.8147 53.0502 21.6484 53.3767H21.6927H21.7259C22.5062 53.7014 23.3031 53.993 24.111 54.2406C24.9325 54.4955 25.7675 54.7049 26.6123 54.8679C26.9222 54.9285 27.2376 54.9835 27.5475 55.033L27.8298 55.077V55.1376ZM10.8906 13.2066H18.9313C20.2135 11.3907 21.6148 9.66093 23.126 8.02851C24.6845 6.33283 26.3283 4.71662 28.0511 3.18609L27.625 3.24662C27.2764 3.30165 26.9333 3.36218 26.5957 3.43372C25.7442 3.60365 24.9019 3.8167 24.0723 4.07204C23.2443 4.32517 22.4314 4.62463 21.6374 4.96898C20.822 5.31382 20.0399 5.68067 19.291 6.06953C18.5421 6.4584 17.8043 6.89495 17.0775 7.37919C16.3792 7.84195 15.7051 8.33968 15.0576 8.87044C14.4102 9.3932 13.7904 9.97099 13.1872 10.5543C12.7279 11.011 12.2852 11.4842 11.8646 11.9685C11.5215 12.3592 11.1895 12.7609 10.874 13.1791L10.8906 13.2066ZM35.793 3.2081C37.597 4.81858 39.2332 6.42538 40.7015 8.02851C42.2128 9.65941 43.6123 11.3893 44.8906 13.2066H52.9147C52.6048 12.7994 52.2783 12.3977 51.9408 12.0125C51.5257 11.5338 51.0775 11.0605 50.6126 10.5983C50.0113 10.0003 49.3896 9.43905 48.7477 8.91446C48.1006 8.38325 47.4264 7.88551 46.7279 7.42321C46.0306 6.95731 45.3038 6.52076 44.5475 6.11356C43.7912 5.70635 43.0054 5.33583 42.1901 5.002L42.1403 4.95248C41.3545 4.62781 40.5576 4.33617 39.7497 4.08854C38.9206 3.83537 38.0782 3.62779 37.2262 3.46673C36.8721 3.3952 36.5234 3.33467 36.1859 3.30165L35.7985 3.24112L35.793 3.2081ZM26.0091 0.577789C26.9609 0.383358 27.9294 0.238453 28.9144 0.143072C29.8828 0.0495248 30.901 0 31.9082 0C32.9154 0 33.9115 0.0495248 34.902 0.143072C35.8926 0.236618 36.8499 0.385193 37.8073 0.577789C38.7415 0.761323 39.6652 0.994609 40.5742 1.27664C41.4904 1.55575 42.3917 1.88083 43.2747 2.25063H43.3356L43.3854 2.27814C44.2487 2.667 45.0972 3.08154 45.931 3.52176C46.7721 3.97849 47.5911 4.46823 48.377 4.98549C49.1439 5.49615 49.8828 6.04721 50.5905 6.63632C51.3283 7.23428 52.0275 7.86527 52.6878 8.52926C53.3509 9.18005 53.9789 9.86518 54.5693 10.5818C55.1606 11.3017 55.7147 12.051 56.2295 12.8269C56.7829 13.6083 57.2477 14.4117 57.7015 15.2426C57.862 15.5343 58.0169 15.8314 58.1663 16.1286H5.59473C5.74967 15.8314 5.90462 15.5288 6.0651 15.2371C6.51888 14.4062 7.01139 13.5863 7.52604 12.8269C8.04069 12.0675 8.59408 11.3192 9.1862 10.6258C9.77832 9.93247 10.4258 9.1951 11.0898 8.53477C11.7457 7.87692 12.4347 7.25248 13.154 6.66383C13.8802 6.0763 14.6356 5.52533 15.4173 5.01301C16.1976 4.46273 17.0111 4.0005 17.8411 3.55478C18.6712 3.10905 19.5843 2.66883 20.4753 2.29465C21.3786 1.91115 22.3023 1.57682 23.2422 1.29315C24.152 1.00907 25.0754 0.770321 26.0091 0.577789ZM33.3857 5.01301V13.2066H41.2604C40.1564 11.7901 38.9798 10.4309 37.7354 9.13457C36.4183 7.76622 34.9684 6.38686 33.3857 4.9965V5.01301ZM30.4362 53.5088V45.1721H22.1354C23.2794 46.6323 24.512 48.0216 25.8265 49.3322C27.2916 50.8004 28.8302 52.1943 30.4362 53.5088ZM30.4362 13.2066V5.01301C28.8535 6.3997 27.4036 7.77906 26.0866 9.15108C24.8426 10.4421 23.666 11.7957 22.5615 13.2066H30.4362Z" fill="#061F39"/>
</svg>
