<svg width="278" height="118" viewBox="0 0 278 118" fill="none" xmlns="http://www.w3.org/2000/svg">
<g clip-path="url(#clip0_3_17)">
<path d="M19.1902 0.839966L24.3298 32.2H24.47L28.7102 0.839966H42.8201L48.3899 53.99H37.5999L35.0701 15.71H34.9299L33.24 28.8199L28.7302 53.99H20.6199L15.4802 28.5399L13.7102 16.7V15.7H13.5701L12.0203 53.98H0.73999L5.40015 0.829956L19.1902 0.839966Z" fill="#F7F1DF"/>
<path d="M63.97 0.839966V51.5699C63.97 55.5699 63.4802 62.9199 69.1902 62.9199C74.3302 62.9199 74.3301 59.04 74.4001 55.09V0.859985H84.9099V57.21C84.9099 62.85 84.2699 72.4399 69.1199 72.4399C59.3199 72.4399 53.47 67.8599 53.47 57.9099V0.909912L63.97 0.839966Z" fill="#F7F1DF"/>
<path d="M113.96 12.8199C111.85 10.9899 109.24 9.43994 106.35 9.43994C103.11 9.43994 101.07 11.4399 101.07 14.6499C101.07 23.3899 117.07 23.8899 117.07 38.2699C117.07 47.7099 111.64 54.83 101.77 54.83C98.5716 54.8436 95.4404 53.9111 92.7703 52.1499V42.1499C95.0676 43.9183 97.8717 44.9033 100.77 44.96C104.16 44.96 106.84 42.6999 106.84 39.1899C106.84 35.0999 103.59 33.5399 100.64 31.4299C94.5699 27.3499 90.8401 23.4299 90.8401 15.6399C90.8401 7.25989 95.7 0 104.72 0C107.999 0.00342732 111.215 0.902424 114.02 2.59998L113.96 12.8199Z" fill="#F7F1DF"/>
<path d="M147.53 0.839966V10.71H139.21V53.99H128.71V10.71H120.47V0.839966H147.53Z" fill="#F7F1DF"/>
<path d="M169.82 0.839966L182.58 53.99H171.37L169.37 44.99H158.73L156.82 53.99H146.4L158.73 0.839966H169.82ZM165.17 22.5499L163.97 14.5499H163.83L162.71 22.5499L160.45 36.71H167.85L165.17 22.5499Z" fill="#F7F1DF"/>
<path d="M212.2 10.85C210.914 10.4883 209.586 10.2999 208.25 10.2899C199.02 10.2899 195 18.67 195 26.85C195 34.75 199 44.47 208.18 44.47C209.544 44.4154 210.893 44.1558 212.18 43.7V53.6399C210.635 54.2572 208.984 54.5664 207.32 54.5499C192.16 54.5499 183.78 40.8799 183.78 26.9199C183.78 13.7399 192.52 0.199951 206.83 0.199951C208.658 0.220701 210.468 0.559073 212.18 1.19995L212.2 10.85Z" fill="#F7F1DF"/>
<path d="M228.08 0.839966V21.63H238.72V0.839966H249.22V53.99H238.72V31.5H228.08V53.99H217.58V0.839966H228.08Z" fill="#F7F1DF"/>
<path d="M277.82 0.839966V10.71H267.17V22.2599H276.55V32.13H267.17V44.13H277.96V54H256.67V0.849976L277.82 0.839966Z" fill="#F7F1DF"/>
<path d="M145.49 116.66V63.5699H155.82C159.91 63.5699 163.43 63.71 166.82 66.46C168.545 67.9436 169.925 69.7863 170.863 71.8591C171.801 73.932 172.274 76.1849 172.25 78.46C172.354 80.6354 171.88 82.7996 170.875 84.7319C169.87 86.6643 168.371 88.2957 166.53 89.46C170.91 91.58 173.09 97.2199 173.09 101.8C173.09 112.3 165.34 116.74 155.75 116.74L145.49 116.66ZM155.99 72.33V85.33C159.94 85.33 162.27 82.65 162.27 78.63C162.27 74.73 160.01 72.12 155.99 72.33ZM155.99 93.47V107.85C160.22 108.07 162.69 104.96 162.69 100.53C162.69 96.3599 160.16 93.33 155.99 93.47Z" fill="#F7F1DF"/>
<path d="M199.17 63.5699L211.92 116.71H200.71L198.71 107.76H188.07L186.16 116.71H175.73L188.07 63.5699H199.17ZM194.51 85.2799L193.32 77.2799H193.17L192.04 85.2799L189.79 99.4399H197.19L194.51 85.2799Z" fill="#F7F1DF"/>
<path d="M237.17 75.5C235.06 73.67 232.45 72.12 229.56 72.12C226.32 72.12 224.27 74.12 224.27 77.33C224.27 86.07 240.27 86.5699 240.27 100.94C240.27 110.39 234.84 117.5 224.97 117.5C221.773 117.511 218.644 116.582 215.97 114.83V104.83C218.264 106.605 221.07 107.594 223.97 107.65C227.35 107.65 230.03 105.39 230.03 101.87C230.03 97.78 226.79 96.23 223.83 94.12C217.77 90.03 214.04 86.12 214.04 78.33C214.04 69.94 218.9 62.6799 227.92 62.6799C231.2 62.6864 234.416 63.5889 237.22 65.2899L237.17 75.5Z" fill="#F7F1DF"/>
<path d="M256.82 63.5699V84.36H267.46V63.5699H277.97V116.71H267.46V94.23H256.82V116.71H246.32V63.5699H256.82Z" fill="#F7F1DF"/>
<path d="M69.19 94.6499C68.09 101.71 48.0498 108.09 48.0498 108.09C48.0498 108.09 15.8997 115.8 4.88967 108.09C-6.12033 100.38 4.88967 86.5 4.88967 86.5C5.98967 101.71 15.6797 89.37 15.6797 89.37C32.6797 65.81 69.19 64.49 69.19 64.49C69.19 64.49 105.75 65.81 122.71 89.37C122.71 89.37 132.39 101.71 133.49 86.5C133.49 86.5 144.49 100.39 133.49 108.09C122.49 115.79 90.3296 108.09 90.3296 108.09C90.3296 108.09 70.3 101.71 69.19 94.6499Z" fill="#F7F1DF"/>
</g>
<defs>
<clipPath id="clip0_3_17">
<rect width="278" height="117.51" fill="white"/>
</clipPath>
</defs>
</svg>
