<svg width="41" height="41" viewBox="0 0 41 41" fill="none" xmlns="http://www.w3.org/2000/svg">
<path d="M36.4444 0H4.55556C2.05 0 0 2.05 0 4.55556V36.4444C0 38.9523 2.05 41 4.55556 41H36.4444C38.95 41 41 38.9523 41 36.4444V4.55556C41 2.05 38.95 0 36.4444 0ZM20.4636 33.0802C23.8091 33.079 27.0173 31.7493 29.3827 29.3834C31.7482 27.0175 33.0773 23.8091 33.0779 20.4636C33.0779 19.6937 32.9799 18.9511 32.8433 18.2222H36.4444V34.6587C36.4444 34.8656 36.4036 35.0706 36.3242 35.2617C36.2447 35.4528 36.1284 35.6264 35.9817 35.7724C35.835 35.9185 35.661 36.0341 35.4695 36.1127C35.278 36.1912 35.0729 36.2312 34.8659 36.2303H6.13406C5.92709 36.2312 5.72198 36.1912 5.53051 36.1127C5.33903 36.0341 5.16497 35.9185 5.0183 35.7724C4.87163 35.6264 4.75525 35.4528 4.67584 35.2617C4.59643 35.0706 4.55555 34.8656 4.55556 34.6587V18.2222H8.08383C7.94489 18.9511 7.84694 19.6937 7.84694 20.4636C7.84755 23.8095 9.17699 27.0182 11.5429 29.3842C13.9089 31.7501 17.1176 33.0796 20.4636 33.0802ZM12.5802 20.4636C12.5802 19.4283 12.7841 18.4032 13.1803 17.4467C13.5764 16.4903 14.1571 15.6212 14.8892 14.8892C15.6212 14.1571 16.4903 13.5764 17.4467 13.1803C18.4032 12.7841 19.4283 12.5802 20.4636 12.5802C21.4988 12.5802 22.5239 12.7841 23.4804 13.1803C24.4369 13.5764 25.3059 14.1571 26.038 14.8892C26.77 15.6212 27.3507 16.4903 27.7469 17.4467C28.143 18.4032 28.3469 19.4283 28.3469 20.4636C28.3469 22.5544 27.5164 24.5595 26.038 26.038C24.5595 27.5164 22.5544 28.3469 20.4636 28.3469C18.3728 28.3469 16.3676 27.5164 14.8892 26.038C13.4107 24.5595 12.5802 22.5544 12.5802 20.4636ZM34.8659 11.3889H31.1873C30.7697 11.3877 30.3694 11.2212 30.0741 10.9259C29.7788 10.6306 29.6123 10.2303 29.6111 9.81267V6.1295C29.6111 5.25939 30.3172 4.55556 31.1851 4.55556H34.8637C35.7383 4.55556 36.4444 5.25939 36.4444 6.1295V9.81039C36.4444 10.6782 35.7383 11.3889 34.8659 11.3889Z" fill="#F7F1DF"/>
</svg>
