<svg width="24" height="43" viewBox="0 0 24 43" fill="none" xmlns="http://www.w3.org/2000/svg">
<path d="M17.3202 0C14.4198 0 11.6382 1.1481 9.58731 3.19173C7.53641 5.23537 6.38424 8.00713 6.38424 10.8973V16.9644H0.532019C0.238818 16.9644 0 17.2 0 17.4945V25.5055C0 25.7976 0.236453 26.0356 0.532019 26.0356H6.38424V42.4699C6.38424 42.762 6.62069 43 6.91626 43H14.9557C15.2489 43 15.4877 42.7644 15.4877 42.4699V26.0356H21.3919C21.6355 26.0356 21.8483 25.8707 21.9074 25.6351L23.9172 17.6241C23.937 17.5459 23.9386 17.4643 23.922 17.3854C23.9053 17.3065 23.8709 17.2325 23.8212 17.1688C23.7714 17.1052 23.7078 17.0538 23.6352 17.0183C23.5625 16.9829 23.4827 16.9644 23.4018 16.9644H15.4877V10.8973C15.4877 10.6575 15.5351 10.42 15.6272 10.1985C15.7193 9.97693 15.8542 9.77563 16.0244 9.60606C16.1946 9.4365 16.3966 9.302 16.6189 9.21023C16.8413 9.11846 17.0795 9.07123 17.3202 9.07123H23.468C23.7612 9.07123 24 8.83562 24 8.5411V0.530137C24 0.237972 23.7635 0 23.468 0H17.3202Z" fill="#F7F1DF"/>
</svg>
